<svg xmlns="http://www.w3.org/2000/svg" width="19.451" height="17.893" viewBox="0 0 19.451 17.893">
  <g id="Double_Chevron_Down" transform="matrix(0.017, 1, -1, 0.017, 19.145, 0)">
    <path id="Path_1" data-name="Path 1" d="M15.671,10.358,8.78,2.891,1.89,10.359a1.044,1.044,0,0,1-1.566,0,1.282,1.282,0,0,1,0-1.7L8,.34a1.073,1.073,0,0,1,1.567,0l7.674,8.316a1.282,1.282,0,0,1,0,1.7A1.047,1.047,0,0,1,15.671,10.358Z" transform="translate(0 0)" fill="rgba(18,19,19,0.55)"/>
    <path id="Path_2" data-name="Path 2" d="M8,.34a1.073,1.073,0,0,1,1.567,0l7.674,8.315a1.282,1.282,0,0,1,0,1.7,1.044,1.044,0,0,1-1.566,0L8.78,2.892,1.89,10.359a1.044,1.044,0,0,1-1.566,0,1.282,1.282,0,0,1,0-1.7Z" transform="translate(0 8.435)" fill="rgba(18,19,19,0.55)"/>
  </g>
</svg>
