<svg xmlns="http://www.w3.org/2000/svg" width="19.451" height="17.893" viewBox="0 0 19.451 17.893">
  <g id="Double_Chevron_DownL" transform="matrix(-0.017, 1, -1, -0.017, 27.645, -7.516)">
    <path id="Path_1" data-name="Path 1" d="M23.663,15.409l-6.891,7.466L9.881,15.408a1.044,1.044,0,0,0-1.566,0,1.282,1.282,0,0,0,0,1.7l7.674,8.315a1.073,1.073,0,0,0,1.567,0l7.674-8.316a1.282,1.282,0,0,0,0-1.7A1.047,1.047,0,0,0,23.663,15.409Z" transform="translate(0 1.436)" fill="rgba(18,19,19,0.55)"/>
    <path id="Path_2" data-name="Path 2" d="M15.989,18.428a1.073,1.073,0,0,0,1.567,0l7.674-8.315a1.282,1.282,0,0,0,0-1.7,1.044,1.044,0,0,0-1.566,0l-6.892,7.466L9.881,8.409a1.044,1.044,0,0,0-1.566,0,1.282,1.282,0,0,0,0,1.7Z" fill="rgba(18,19,19,0.55)"/>
  </g>
</svg>
