<svg xmlns="http://www.w3.org/2000/svg" width="40" height="40" viewBox="0 0 40 40">
  <path id="facebook-131979012930159929_0" d="M23,25.222H20.778a2.222,2.222,0,1,1,0-4.444H23V14.111a2.222,2.222,0,0,1,2.222-2.222h6.667a2.222,2.222,0,0,1,0,4.444H27.444v4.444h4.444a2.222,2.222,0,0,1,0,4.444H27.444V40.778A2.222,2.222,0,0,1,25.222,43h-20A2.222,2.222,0,0,1,3,40.778V5.222A2.222,2.222,0,0,1,5.222,3H40.778A2.222,2.222,0,0,1,43,5.222V40.778A2.222,2.222,0,0,1,40.778,43H34.111a2.222,2.222,0,0,1,0-4.444h4.444V7.444H7.444V38.556H23Z" transform="translate(-3 -3)" fill="#707070"/>
</svg>
