<svg xmlns="http://www.w3.org/2000/svg" width="44" height="44" viewBox="0 0 44 44">
  <path id="instagram-131979013078668579_0" d="M25,42.111A2.444,2.444,0,1,1,25,47H15.222A12.222,12.222,0,0,1,3,34.778V15.222A12.222,12.222,0,0,1,15.222,3H34.778A12.222,12.222,0,0,1,47,15.222V34.778A12.222,12.222,0,0,1,34.778,47a2.444,2.444,0,0,1,0-4.889,7.333,7.333,0,0,0,7.333-7.333V15.222a7.333,7.333,0,0,0-7.333-7.333H15.222a7.333,7.333,0,0,0-7.333,7.333V34.778a7.333,7.333,0,0,0,7.333,7.333ZM25,36A11,11,0,1,1,36,25,11,11,0,0,1,25,36Zm0-4.889A6.111,6.111,0,1,0,18.889,25,6.111,6.111,0,0,0,25,31.111ZM36,16.444A2.444,2.444,0,1,1,38.444,14,2.444,2.444,0,0,1,36,16.444Z" transform="translate(-3 -3)" fill="#707070"/>
</svg>
