<svg xmlns="http://www.w3.org/2000/svg" width="44" height="44" viewBox="0 0 44 44">
  <g id="layer1" transform="translate(0 -552.362)">
    <path id="rect2995" d="M4.4,0A4.39,4.39,0,0,0,0,4.4V39.6A4.39,4.39,0,0,0,4.4,44H39.6A4.39,4.39,0,0,0,44,39.6V4.4A4.39,4.39,0,0,0,39.6,0ZM6.957,4.5h30.22A2.484,2.484,0,0,1,39.666,6.99V37.221a2.482,2.482,0,0,1-2.489,2.486H6.957a2.479,2.479,0,0,1-2.486-2.486V6.99A2.482,2.482,0,0,1,6.957,4.5Zm5.354,4.807a3.057,3.057,0,1,0,3.055,3.055A3.054,3.054,0,0,0,12.312,9.309Zm16.005,7.959c-.345,0-.681.013-1.119.036a5.813,5.813,0,0,0-4.026,2.747c0-.72.008-1.381.008-2.368-.984,0-2.271.005-4.961.005,0,3.014-.033,13.689-.033,16.8h5.209c0-1.845.025-6.481.025-9.391a3.082,3.082,0,0,1,3.02-3.234c2.205,0,2.824,1.855,2.824,3.234,0,3.031-.022,7.317-.022,9.391H34.48c0-2.028.018-7.536-.044-11.011-.076-4.22-2.643-6.021-4.947-6.163C29.014,17.285,28.662,17.269,28.317,17.267ZM9.7,17.754V34.48h5.222V17.754Z" transform="translate(0 552.362)" fill="#707070"/>
  </g>
</svg>
