<svg xmlns="http://www.w3.org/2000/svg" width="24" height="38" viewBox="0 0 24 38">
  <g id="phone_1_" transform="translate(-18 -2)">
    <g id="Group_2" data-name="Group 2" transform="translate(18 2)">
      <path id="Path_5" data-name="Path 5" d="M39,9.633v15.2H21.857V9.633ZM39.857,9H21V25.467H39.857V9Z" transform="translate(-18.429 -4.567)" fill="#707070"/>
      <rect id="Rectangle_8" data-name="Rectangle 8" width="6" transform="translate(9 3)" fill="#707070"/>
      <path id="Path_6" data-name="Path 6" d="M21,45v8.233H39.857V45Zm12,.633v1.9H27.857v-1.9Zm0,2.533v1.9H27.857v-1.9ZM21.857,45.633H27v1.9H21.857Zm0,2.533H27v1.9H21.857Zm0,4.433V50.7H27v1.9Zm6,0V50.7H33v1.9ZM39,52.6H33.857V50.7H39Zm0-2.533H33.857v-1.9H39Zm0-2.533H33.857v-1.9H39Z" transform="translate(-18.429 -17.767)" fill="#707070"/>
      <path id="Path_7" data-name="Path 7" d="M33.143,36.633c.471,0,.857.285.857.633V39.8c0,.348-.386.633-.857.633H29.714c-.471,0-.857-.285-.857-.633V37.267c0-.348.386-.633.857-.633Zm0-.633H29.714C28.769,36,28,36.568,28,37.267V39.8c0,.7.769,1.267,1.714,1.267h3.429c.945,0,1.714-.568,1.714-1.267V37.267c0-.7-.769-1.267-1.714-1.267Z" transform="translate(-19.429 -14.467)" fill="#707070"/>
      <rect id="Rectangle_9" data-name="Rectangle 9" width="4" height="1" transform="translate(3 25)" fill="#707070"/>
      <rect id="Rectangle_10" data-name="Rectangle 10" width="4" height="1" transform="translate(3 22)" fill="#707070"/>
      <rect id="Rectangle_11" data-name="Rectangle 11" width="4" height="1" transform="translate(17 25)" fill="#707070"/>
      <rect id="Rectangle_12" data-name="Rectangle 12" width="4" height="1" transform="translate(17 22)" fill="#707070"/>
      <path id="Path_8" data-name="Path 8" d="M38.571,40H21.429C19.538,40,18,38.864,18,37.467V4.533C18,3.136,19.538,2,21.429,2H38.571C40.462,2,42,3.136,42,4.533V37.467C42,38.864,40.462,40,38.571,40ZM21.429,3.267c-.945,0-1.714.568-1.714,1.267V37.467c0,.7.769,1.267,1.714,1.267H38.571c.945,0,1.714-.568,1.714-1.267V4.533c0-.7-.769-1.267-1.714-1.267Z" transform="translate(-18 -2)" fill="#707070"/>
    </g>
  </g>
</svg>
